<svg xmlns="http://www.w3.org/2000/svg" viewBox="0 0 64 64" fill="none">
  <rect width="64" height="64" rx="14" fill="#059669"/>
  <g transform="translate(12, 14) scale(0.625)">
    <!-- Trumpet bell -->
    <path d="M52 28c0-8-4-14-4-14l-6 2c0 0 3 5 3 12s-3 12-3 12l6 2c0 0 4-6 4-14z" fill="#fff" opacity="0.9"/>
    <!-- Trumpet body -->
    <rect x="10" y="24" width="36" height="8" rx="4" fill="#fff"/>
    <!-- Mouthpiece -->
    <path d="M10 28c0 0-4-1-6-1s-4 1-4 1v0c0 0 2 1 4 1s6-1 6-1z" fill="#fff" opacity="0.85"/>
    <!-- Valves -->
    <rect x="22" y="18" width="3" height="8" rx="1.5" fill="#fff" opacity="0.7"/>
    <rect x="29" y="16" width="3" height="10" rx="1.5" fill="#fff" opacity="0.7"/>
    <rect x="36" y="18" width="3" height="8" rx="1.5" fill="#fff" opacity="0.7"/>
    <!-- Sound waves -->
    <path d="M56 22c2 2 3 4 3 6s-1 4-3 6" stroke="#fff" stroke-width="2" stroke-linecap="round" fill="none" opacity="0.5"/>
    <path d="M60 18c3 3 5 7 5 10s-2 7-5 10" stroke="#fff" stroke-width="2" stroke-linecap="round" fill="none" opacity="0.3"/>
  </g>
</svg>
